<?xml version="1.0" encoding="UTF-8" standalone="no"?>
<!DOCTYPE svg PUBLIC "-//W3C//DTD SVG 1.1//EN" "http://www.w3.org/Graphics/SVG/1.1/DTD/svg11.dtd">
<svg width="100%" height="100%" viewBox="0 0 113 143" version="1.1" xmlns="http://www.w3.org/2000/svg" xmlns:xlink="http://www.w3.org/1999/xlink" xml:space="preserve" xmlns:serif="http://www.serif.com/" style="fill-rule:evenodd;clip-rule:evenodd;stroke-linejoin:round;stroke-miterlimit:2;">
    <path d="M56.5,29.19L28.245,29.19L28.245,0.779L0,0.779L0,29.19L28.245,29.19L28.245,57.601L56.49,57.601C64.034,57.601 71.131,60.557 76.469,65.926C81.807,71.295 84.745,78.423 84.745,86.022C84.745,93.621 81.807,100.749 76.469,106.119C71.131,111.488 64.044,114.444 56.49,114.444C48.936,114.444 41.849,111.488 36.511,106.119C31.173,100.749 28.235,93.621 28.235,86.022L28.235,57.611L0,57.611L0,86.022C0,117.409 25.296,142.855 56.5,142.855C87.704,142.855 113,117.409 113,86.022C113,54.635 87.704,29.19 56.5,29.19Z" style="fill:rgb(245,170,201);fill-opacity:0.2;fill-rule:nonzero;"/>
</svg>
